# xmcd CD database file
# Generated: Mon Apr 7 14:53:46 2003 by KSCD
# 
# Track frame offsets:
#       150
#       6785
#       30787
#       53867
#       80510
#       119690
#       144125
#       172715
#       196260
#       216807
#       243485
#
# Disc length: 3741 seconds
#
# Revision: 1
# Processed by: cddbd v1.4PL0 Copyright (c) Steve Scherf et al.
# Submitted via: Kscd 1.3.3
#
DISCID=840e9b0b
DTITLE=Once Fish - From the Breathing Room to Ward
DYEAR=1900
DGENRE=
TTITLE0=Spill the Beans
TTITLE1=Funk 4 Peace
TTITLE2=Shock Therapy
TTITLE3=Green
TTITLE4=Rhythm of the Rain
TTITLE5=Will Still Thrill
TTITLE6=Daisies
TTITLE7=Gods Kids
TTITLE8=Shake Yer Romeo
TTITLE9=When I Go
TTITLE10=
EXTD=
EXTT0=
EXTT1=
EXTT2=
EXTT3=
EXTT4=
EXTT5=
EXTT6=
EXTT7=
EXTT8=
EXTT9=
EXTT10=
PLAYORDER=
